
      Complete Name: End Of Days 1999 DvDrip_minstrel
      Format : AVI
      Format/Info : Audio Video Interleave
      File size : 706 MiB
      Duration : 1h 57mn
      Overall bit rate : 843 Kbps
   Video #0
      ID : 0
      Format : MPEG-4 Visual
      Format profile : Simple@L3
      Format settings, BVOP : No
      Format settings, QPel : No
      Format settings, GMC : No warppoints
      Format settings, Matrix : Default (H.263)
      Codec ID : XVID
      Codec ID/Hint : XviD
      Duration : 1h 57mn
      Bit rate : 734 Kbps
      Width : 640 pixels
      Height : 272 pixels
      Display aspect ratio : 2.35:1
      Frame rate : 25.000 fps
      Resolution : 24 bits
      Colorimetry : 4:2:0
      Scan type : Progressive
      Bits/(Pixel*Frame) : 0.169
      Stream size : 615 MiB (87%)
      Writing library : XviD 1.1.0 (UTC 2005-11-22)
   Audio #1
      ID : 1
      Format : MPEG Audio
      Format version : Version 1
      Format profile : Layer 3
      Codec ID : 55
      Codec ID/Hint : MP3
      Duration : 1h 56mn
      Bit rate mode : Constant
      Bit rate : 96.0 Kbps
      Channel(s) : 2 channels
      Sampling rate : 48.0 KHz
      Resolution : 16 bits
      Stream size : 80.3 MiB (11%)
      Alignment : Aligned on interleaves
      Interleave, duration : 24 ms (0.60 video frame)
      Interleave, preload duration : 504 ms
      Language : english

Cast
  

Arnold Schwarzenegger	... Jericho Cane

Gabriel Byrne	... 	The Man / Satan

Robin Tunney	... 	Christine York

Kevin Pollak	... 	Bobby Chicago

CCH Pounder	... 	Detective Margie Francis

Derrick O'Connor... 	Thomas Aquinas

David Weisenberg... 	OB / GYN

Rainer Judd	... 	Christine's Mother

Miriam Margolyes... 	Mabel

Udo Kier	... 	Head Priest
Victor Varnado	... 	Albino
Michael O'Hagan	... 	Cardinal
Mark Margolis	... 	Pope
Jack Shearer	... 	Kellogg
Rod Steiger	... 	Father Kovak




On December 28th, 1999, the citizens of New York City are getting ready for the turn of the millennium. However, the Devil decides to crash the party by coming to the city, inhabiting a man's body, and searching for his chosen bride, a 20-year-old woman named Christine York. If he bears her child between 11:00 PM and midnight on New Year's Eve, the world will end, and the only hope lies within an atheist ex-cop named Jericho Cane, who no longer believes in God because of the murder of his wife and daughter.

